<mxfile host="app.diagrams.net" modified="2021-09-17T01:57:04.921Z" agent="5.0 (Windows NT 10.0; Win64; x64) AppleWebKit/537.36 (KHTML, like Gecko) Chrome/93.0.4577.82 Safari/537.36" etag="jNe_k2ERlpgPdXtGSu18" version="15.1.0" type="github">
  <diagram id="ZZ0EQuLUJnr3Kp4Zxc6z" name="Page-1">
    <mxGraphModel dx="1038" dy="579" grid="1" gridSize="10" guides="1" tooltips="1" connect="1" arrows="1" fold="1" page="1" pageScale="1" pageWidth="827" pageHeight="1169" math="0" shadow="0">
      <root>
        <mxCell id="0" />
        <mxCell id="1" parent="0" />
        <mxCell id="PbU087EfH39Y8QnQduup-5" style="edgeStyle=orthogonalEdgeStyle;rounded=0;orthogonalLoop=1;jettySize=auto;html=1;entryX=0.25;entryY=0;entryDx=0;entryDy=0;" edge="1" parent="1" source="PbU087EfH39Y8QnQduup-1" target="PbU087EfH39Y8QnQduup-3">
          <mxGeometry relative="1" as="geometry" />
        </mxCell>
        <mxCell id="PbU087EfH39Y8QnQduup-1" value="挑题组卷（扫码登录）" style="rounded=0;whiteSpace=wrap;html=1;" vertex="1" parent="1">
          <mxGeometry x="50" y="40" width="150" height="40" as="geometry" />
        </mxCell>
        <mxCell id="PbU087EfH39Y8QnQduup-6" style="edgeStyle=orthogonalEdgeStyle;rounded=0;orthogonalLoop=1;jettySize=auto;html=1;" edge="1" parent="1" source="PbU087EfH39Y8QnQduup-2" target="PbU087EfH39Y8QnQduup-4">
          <mxGeometry relative="1" as="geometry" />
        </mxCell>
        <mxCell id="PbU087EfH39Y8QnQduup-2" value="更多资源（扫码登录）" style="rounded=0;whiteSpace=wrap;html=1;" vertex="1" parent="1">
          <mxGeometry x="280" y="40" width="150" height="40" as="geometry" />
        </mxCell>
        <mxCell id="PbU087EfH39Y8QnQduup-9" style="edgeStyle=orthogonalEdgeStyle;rounded=0;orthogonalLoop=1;jettySize=auto;html=1;entryX=0;entryY=0.5;entryDx=0;entryDy=0;" edge="1" parent="1" source="PbU087EfH39Y8QnQduup-3" target="PbU087EfH39Y8QnQduup-7">
          <mxGeometry relative="1" as="geometry" />
        </mxCell>
        <mxCell id="PbU087EfH39Y8QnQduup-3" value="埋点" style="rounded=0;whiteSpace=wrap;html=1;" vertex="1" parent="1">
          <mxGeometry x="100" y="100" width="120" height="30" as="geometry" />
        </mxCell>
        <mxCell id="PbU087EfH39Y8QnQduup-8" style="edgeStyle=orthogonalEdgeStyle;rounded=0;orthogonalLoop=1;jettySize=auto;html=1;entryX=1;entryY=0.5;entryDx=0;entryDy=0;" edge="1" parent="1" source="PbU087EfH39Y8QnQduup-4" target="PbU087EfH39Y8QnQduup-7">
          <mxGeometry relative="1" as="geometry" />
        </mxCell>
        <mxCell id="PbU087EfH39Y8QnQduup-4" value="埋点" style="rounded=0;whiteSpace=wrap;html=1;" vertex="1" parent="1">
          <mxGeometry x="250" y="100" width="120" height="30" as="geometry" />
        </mxCell>
        <mxCell id="PbU087EfH39Y8QnQduup-12" value="" style="edgeStyle=orthogonalEdgeStyle;rounded=0;orthogonalLoop=1;jettySize=auto;html=1;" edge="1" parent="1" source="PbU087EfH39Y8QnQduup-7" target="PbU087EfH39Y8QnQduup-11">
          <mxGeometry relative="1" as="geometry" />
        </mxCell>
        <mxCell id="PbU087EfH39Y8QnQduup-7" value="调起扫码" style="rounded=0;whiteSpace=wrap;html=1;" vertex="1" parent="1">
          <mxGeometry x="170" y="150" width="120" height="60" as="geometry" />
        </mxCell>
        <mxCell id="PbU087EfH39Y8QnQduup-13" style="edgeStyle=orthogonalEdgeStyle;rounded=0;orthogonalLoop=1;jettySize=auto;html=1;" edge="1" parent="1" source="PbU087EfH39Y8QnQduup-11">
          <mxGeometry relative="1" as="geometry">
            <mxPoint x="230" y="340" as="targetPoint" />
          </mxGeometry>
        </mxCell>
        <mxCell id="PbU087EfH39Y8QnQduup-11" value="扫码拿到的信息" style="rounded=0;whiteSpace=wrap;html=1;" vertex="1" parent="1">
          <mxGeometry x="170" y="230" width="120" height="60" as="geometry" />
        </mxCell>
        <mxCell id="PbU087EfH39Y8QnQduup-15" value="" style="edgeStyle=orthogonalEdgeStyle;rounded=0;orthogonalLoop=1;jettySize=auto;html=1;" edge="1" parent="1" source="PbU087EfH39Y8QnQduup-14" target="PbU087EfH39Y8QnQduup-11">
          <mxGeometry relative="1" as="geometry" />
        </mxCell>
        <mxCell id="PbU087EfH39Y8QnQduup-18" style="edgeStyle=orthogonalEdgeStyle;rounded=0;orthogonalLoop=1;jettySize=auto;html=1;" edge="1" parent="1" source="PbU087EfH39Y8QnQduup-14">
          <mxGeometry relative="1" as="geometry">
            <mxPoint x="410" y="380" as="targetPoint" />
          </mxGeometry>
        </mxCell>
        <mxCell id="PbU087EfH39Y8QnQduup-22" style="edgeStyle=orthogonalEdgeStyle;rounded=0;orthogonalLoop=1;jettySize=auto;html=1;" edge="1" parent="1" source="PbU087EfH39Y8QnQduup-14">
          <mxGeometry relative="1" as="geometry">
            <mxPoint x="230" y="480" as="targetPoint" />
          </mxGeometry>
        </mxCell>
        <mxCell id="PbU087EfH39Y8QnQduup-14" value="判断是否是ewt Pc端登录二维码" style="rhombus;whiteSpace=wrap;html=1;" vertex="1" parent="1">
          <mxGeometry x="130" y="340" width="200" height="80" as="geometry" />
        </mxCell>
        <mxCell id="PbU087EfH39Y8QnQduup-19" value="不是" style="text;html=1;align=center;verticalAlign=middle;resizable=0;points=[];autosize=1;strokeColor=none;fillColor=none;" vertex="1" parent="1">
          <mxGeometry x="340" y="350" width="40" height="20" as="geometry" />
        </mxCell>
        <mxCell id="PbU087EfH39Y8QnQduup-20" value="&lt;div style=&quot;color: rgb(225 , 228 , 232) ; background-color: rgb(36 , 41 , 46) ; font-family: &amp;#34;consolas&amp;#34; , &amp;#34;courier new&amp;#34; , monospace ; font-size: 14px ; line-height: 19px&quot;&gt;&lt;span style=&quot;color: #9ecbff&quot;&gt;抱歉，您扫码的这个网站/平台不在服务支持范围&lt;/span&gt;&lt;/div&gt;" style="rounded=0;whiteSpace=wrap;html=1;" vertex="1" parent="1">
          <mxGeometry x="414" y="350" width="216" height="100" as="geometry" />
        </mxCell>
        <mxCell id="PbU087EfH39Y8QnQduup-21" value="弹窗" style="text;html=1;align=center;verticalAlign=middle;resizable=0;points=[];autosize=1;strokeColor=none;fillColor=none;" vertex="1" parent="1">
          <mxGeometry x="502" y="330" width="40" height="20" as="geometry" />
        </mxCell>
        <mxCell id="PbU087EfH39Y8QnQduup-23" value="是" style="text;html=1;align=center;verticalAlign=middle;resizable=0;points=[];autosize=1;strokeColor=none;fillColor=none;" vertex="1" parent="1">
          <mxGeometry x="240" y="450" width="30" height="20" as="geometry" />
        </mxCell>
        <mxCell id="PbU087EfH39Y8QnQduup-25" style="edgeStyle=orthogonalEdgeStyle;rounded=0;orthogonalLoop=1;jettySize=auto;html=1;" edge="1" parent="1" source="PbU087EfH39Y8QnQduup-24">
          <mxGeometry relative="1" as="geometry">
            <mxPoint x="235" y="550" as="targetPoint" />
          </mxGeometry>
        </mxCell>
        <mxCell id="PbU087EfH39Y8QnQduup-24" value="截取URL中的uuid" style="rounded=0;whiteSpace=wrap;html=1;" vertex="1" parent="1">
          <mxGeometry x="170" y="480" width="130" height="40" as="geometry" />
        </mxCell>
        <mxCell id="PbU087EfH39Y8QnQduup-28" style="edgeStyle=orthogonalEdgeStyle;rounded=0;orthogonalLoop=1;jettySize=auto;html=1;" edge="1" parent="1" source="PbU087EfH39Y8QnQduup-27" target="PbU087EfH39Y8QnQduup-29">
          <mxGeometry relative="1" as="geometry">
            <mxPoint x="235" y="670" as="targetPoint" />
          </mxGeometry>
        </mxCell>
        <mxCell id="PbU087EfH39Y8QnQduup-27" value="加载中..." style="ellipse;whiteSpace=wrap;html=1;aspect=fixed;" vertex="1" parent="1">
          <mxGeometry x="195" y="550" width="80" height="80" as="geometry" />
        </mxCell>
        <mxCell id="PbU087EfH39Y8QnQduup-32" style="edgeStyle=orthogonalEdgeStyle;rounded=0;orthogonalLoop=1;jettySize=auto;html=1;" edge="1" parent="1" source="PbU087EfH39Y8QnQduup-29">
          <mxGeometry relative="1" as="geometry">
            <mxPoint x="235" y="770" as="targetPoint" />
          </mxGeometry>
        </mxCell>
        <mxCell id="PbU087EfH39Y8QnQduup-29" value="拿着uuid&lt;br&gt;请求接口，将二维码设置为已扫描" style="rounded=0;whiteSpace=wrap;html=1;" vertex="1" parent="1">
          <mxGeometry x="108.75" y="670" width="252.5" height="60" as="geometry" />
        </mxCell>
        <mxCell id="PbU087EfH39Y8QnQduup-35" value="" style="edgeStyle=orthogonalEdgeStyle;rounded=0;orthogonalLoop=1;jettySize=auto;html=1;" edge="1" parent="1" source="PbU087EfH39Y8QnQduup-34" target="PbU087EfH39Y8QnQduup-29">
          <mxGeometry relative="1" as="geometry" />
        </mxCell>
        <mxCell id="PbU087EfH39Y8QnQduup-36" style="edgeStyle=orthogonalEdgeStyle;rounded=0;orthogonalLoop=1;jettySize=auto;html=1;" edge="1" parent="1" source="PbU087EfH39Y8QnQduup-34">
          <mxGeometry relative="1" as="geometry">
            <mxPoint x="370" y="810" as="targetPoint" />
          </mxGeometry>
        </mxCell>
        <mxCell id="PbU087EfH39Y8QnQduup-40" style="edgeStyle=orthogonalEdgeStyle;rounded=0;orthogonalLoop=1;jettySize=auto;html=1;" edge="1" parent="1" source="PbU087EfH39Y8QnQduup-34">
          <mxGeometry relative="1" as="geometry">
            <mxPoint x="235" y="920" as="targetPoint" />
          </mxGeometry>
        </mxCell>
        <mxCell id="PbU087EfH39Y8QnQduup-34" value="判断是否成功" style="rhombus;whiteSpace=wrap;html=1;" vertex="1" parent="1">
          <mxGeometry x="182.5" y="770" width="105" height="80" as="geometry" />
        </mxCell>
        <mxCell id="PbU087EfH39Y8QnQduup-37" value="失败" style="text;html=1;align=center;verticalAlign=middle;resizable=0;points=[];autosize=1;strokeColor=none;fillColor=none;" vertex="1" parent="1">
          <mxGeometry x="287.5" y="790" width="40" height="20" as="geometry" />
        </mxCell>
        <mxCell id="PbU087EfH39Y8QnQduup-38" value="显示接口返回的错误信息（msg)" style="rounded=0;whiteSpace=wrap;html=1;" vertex="1" parent="1">
          <mxGeometry x="370" y="780" width="310" height="60" as="geometry" />
        </mxCell>
        <mxCell id="PbU087EfH39Y8QnQduup-39" value="弹窗" style="text;html=1;align=center;verticalAlign=middle;resizable=0;points=[];autosize=1;strokeColor=none;fillColor=none;" vertex="1" parent="1">
          <mxGeometry x="502" y="760" width="40" height="20" as="geometry" />
        </mxCell>
        <mxCell id="PbU087EfH39Y8QnQduup-41" value="成功" style="text;html=1;align=center;verticalAlign=middle;resizable=0;points=[];autosize=1;strokeColor=none;fillColor=none;" vertex="1" parent="1">
          <mxGeometry x="230" y="870" width="40" height="20" as="geometry" />
        </mxCell>
        <mxCell id="PbU087EfH39Y8QnQduup-42" value="弹窗" style="text;html=1;align=center;verticalAlign=middle;resizable=0;points=[];autosize=1;strokeColor=none;fillColor=none;" vertex="1" parent="1">
          <mxGeometry x="215" y="930" width="40" height="20" as="geometry" />
        </mxCell>
        <mxCell id="PbU087EfH39Y8QnQduup-43" value="您即将要登录到升学e网通教师端的网页版，是否确认登录？&lt;br&gt;" style="rounded=0;whiteSpace=wrap;html=1;" vertex="1" parent="1">
          <mxGeometry x="64" y="950" width="350" height="90" as="geometry" />
        </mxCell>
        <mxCell id="PbU087EfH39Y8QnQduup-46" style="edgeStyle=orthogonalEdgeStyle;rounded=0;orthogonalLoop=1;jettySize=auto;html=1;" edge="1" parent="1" source="PbU087EfH39Y8QnQduup-44" target="PbU087EfH39Y8QnQduup-47">
          <mxGeometry relative="1" as="geometry">
            <mxPoint x="150" y="1080" as="targetPoint" />
          </mxGeometry>
        </mxCell>
        <mxCell id="PbU087EfH39Y8QnQduup-44" value="取消登录" style="rounded=1;whiteSpace=wrap;html=1;" vertex="1" parent="1">
          <mxGeometry x="105" y="1010" width="90" height="30" as="geometry" />
        </mxCell>
        <mxCell id="PbU087EfH39Y8QnQduup-53" style="edgeStyle=orthogonalEdgeStyle;rounded=0;orthogonalLoop=1;jettySize=auto;html=1;" edge="1" parent="1" source="PbU087EfH39Y8QnQduup-45" target="PbU087EfH39Y8QnQduup-54">
          <mxGeometry relative="1" as="geometry">
            <mxPoint x="295" y="1350" as="targetPoint" />
          </mxGeometry>
        </mxCell>
        <mxCell id="PbU087EfH39Y8QnQduup-45" value="确认登录" style="rounded=1;whiteSpace=wrap;html=1;" vertex="1" parent="1">
          <mxGeometry x="250" y="1010" width="90" height="30" as="geometry" />
        </mxCell>
        <mxCell id="PbU087EfH39Y8QnQduup-49" style="edgeStyle=orthogonalEdgeStyle;rounded=0;orthogonalLoop=1;jettySize=auto;html=1;" edge="1" parent="1" source="PbU087EfH39Y8QnQduup-47" target="PbU087EfH39Y8QnQduup-51">
          <mxGeometry relative="1" as="geometry">
            <mxPoint x="150" y="1210" as="targetPoint" />
          </mxGeometry>
        </mxCell>
        <mxCell id="PbU087EfH39Y8QnQduup-47" value="调用取消登录接口" style="rounded=0;whiteSpace=wrap;html=1;" vertex="1" parent="1">
          <mxGeometry x="90" y="1120" width="120" height="30" as="geometry" />
        </mxCell>
        <mxCell id="PbU087EfH39Y8QnQduup-50" value="无论成功失败" style="text;html=1;align=center;verticalAlign=middle;resizable=0;points=[];autosize=1;strokeColor=none;fillColor=none;" vertex="1" parent="1">
          <mxGeometry x="64" y="1169" width="90" height="20" as="geometry" />
        </mxCell>
        <mxCell id="PbU087EfH39Y8QnQduup-51" value="已取消登录" style="rounded=0;whiteSpace=wrap;html=1;" vertex="1" parent="1">
          <mxGeometry x="90" y="1230" width="120" height="40" as="geometry" />
        </mxCell>
        <mxCell id="PbU087EfH39Y8QnQduup-52" value="toast" style="text;html=1;strokeColor=none;fillColor=none;align=center;verticalAlign=middle;whiteSpace=wrap;rounded=0;" vertex="1" parent="1">
          <mxGeometry x="89" y="1210" width="40" height="20" as="geometry" />
        </mxCell>
        <mxCell id="PbU087EfH39Y8QnQduup-58" style="edgeStyle=orthogonalEdgeStyle;rounded=0;orthogonalLoop=1;jettySize=auto;html=1;" edge="1" parent="1" source="PbU087EfH39Y8QnQduup-54" target="PbU087EfH39Y8QnQduup-59">
          <mxGeometry relative="1" as="geometry">
            <mxPoint x="295" y="1380" as="targetPoint" />
          </mxGeometry>
        </mxCell>
        <mxCell id="PbU087EfH39Y8QnQduup-54" value="加载中..." style="ellipse;whiteSpace=wrap;html=1;aspect=fixed;" vertex="1" parent="1">
          <mxGeometry x="260" y="1270" width="70" height="70" as="geometry" />
        </mxCell>
        <mxCell id="PbU087EfH39Y8QnQduup-55" value="关闭loading" style="text;html=1;align=center;verticalAlign=middle;resizable=0;points=[];autosize=1;strokeColor=none;fillColor=none;" vertex="1" parent="1">
          <mxGeometry x="154" y="890" width="80" height="20" as="geometry" />
        </mxCell>
        <mxCell id="PbU087EfH39Y8QnQduup-57" value="关闭loading" style="text;html=1;align=center;verticalAlign=middle;resizable=0;points=[];autosize=1;strokeColor=none;fillColor=none;" vertex="1" parent="1">
          <mxGeometry x="290" y="810" width="80" height="20" as="geometry" />
        </mxCell>
        <mxCell id="PbU087EfH39Y8QnQduup-60" style="edgeStyle=orthogonalEdgeStyle;rounded=0;orthogonalLoop=1;jettySize=auto;html=1;" edge="1" parent="1" source="PbU087EfH39Y8QnQduup-59">
          <mxGeometry relative="1" as="geometry">
            <mxPoint x="294" y="1509" as="targetPoint" />
          </mxGeometry>
        </mxCell>
        <mxCell id="PbU087EfH39Y8QnQduup-61" style="edgeStyle=orthogonalEdgeStyle;rounded=0;orthogonalLoop=1;jettySize=auto;html=1;entryX=0.48;entryY=1.037;entryDx=0;entryDy=0;entryPerimeter=0;" edge="1" parent="1" source="PbU087EfH39Y8QnQduup-59" target="PbU087EfH39Y8QnQduup-38">
          <mxGeometry relative="1" as="geometry">
            <mxPoint x="480" y="1400" as="targetPoint" />
          </mxGeometry>
        </mxCell>
        <mxCell id="PbU087EfH39Y8QnQduup-59" value="拿着uuid&lt;br&gt;请求确认登录接口" style="rounded=0;whiteSpace=wrap;html=1;" vertex="1" parent="1">
          <mxGeometry x="235" y="1370" width="120" height="60" as="geometry" />
        </mxCell>
        <mxCell id="PbU087EfH39Y8QnQduup-62" value="失败" style="text;html=1;align=center;verticalAlign=middle;resizable=0;points=[];autosize=1;strokeColor=none;fillColor=none;" vertex="1" parent="1">
          <mxGeometry x="394" y="1380" width="40" height="20" as="geometry" />
        </mxCell>
        <mxCell id="PbU087EfH39Y8QnQduup-63" value="关闭loading" style="text;html=1;align=center;verticalAlign=middle;resizable=0;points=[];autosize=1;strokeColor=none;fillColor=none;" vertex="1" parent="1">
          <mxGeometry x="440" y="1360" width="80" height="20" as="geometry" />
        </mxCell>
        <mxCell id="PbU087EfH39Y8QnQduup-64" value="成功" style="text;html=1;align=center;verticalAlign=middle;resizable=0;points=[];autosize=1;strokeColor=none;fillColor=none;" vertex="1" parent="1">
          <mxGeometry x="300" y="1440" width="40" height="20" as="geometry" />
        </mxCell>
        <mxCell id="PbU087EfH39Y8QnQduup-65" value="Toast" style="text;html=1;align=center;verticalAlign=middle;resizable=0;points=[];autosize=1;strokeColor=none;fillColor=none;" vertex="1" parent="1">
          <mxGeometry x="230" y="1490" width="40" height="20" as="geometry" />
        </mxCell>
        <mxCell id="PbU087EfH39Y8QnQduup-66" value="登录成功！" style="rounded=0;whiteSpace=wrap;html=1;" vertex="1" parent="1">
          <mxGeometry x="240" y="1510" width="120" height="60" as="geometry" />
        </mxCell>
      </root>
    </mxGraphModel>
  </diagram>
</mxfile>
